<?xml version="1.0" encoding="UTF-8"?>
<svg id="Layer_2" data-name="Layer 2" xmlns="http://www.w3.org/2000/svg" viewBox="0 0 209.4 207.26">
  <defs>
    <style>
      .cls-1 {
        fill: #231f20;
      }
    </style>
  </defs>
  <g id="Layer_1-2" data-name="Layer 1">
    <g>
      <path class="cls-1" d="M65.97,112.07c.87-.86,2.26-.86,3.14-.01,1.96,1.89,3.83,3.91,5.74,5.82l14.18,14.02,24.98,24.68c3.83,3.81,7.77,7.53,11.5,11.44.41.43.63,1.01.61,1.61-.12,4.12,0,8.28,0,12.4v23c0,1.24-1.01,2.24-2.25,2.24l-38.78-.02c-1.24,0-2.24-1-2.24-2.24v-43.64s0,0,0,0c0-1.98-2.39-2.99-3.81-1.61-10.77,10.52-21.47,21.12-32.11,31.78-.86.86-2.25.89-3.12.05-2.63-2.55-5.15-5.26-7.78-7.81-6.6-6.41-13.3-12.83-19.7-19.45-.85-.88-.83-2.29.04-3.16l49.59-49.09Z"/>
      <path class="cls-1" d="M83.44,2.27c0-1.21.97-2.22,2.18-2.24,4.27-.09,8.57.03,12.83.03h26c1.23-.01,2.24.98,2.25,2.21.1,9.81,0,19.64,0,29.46,0,4.71.16,9.49.1,14.23-.02,2.01,2.41,3.02,3.83,1.6,2.37-2.37,4.7-4.8,7.07-7.15l24.85-24.54c.87-.86,2.27-.86,3.15,0,2.46,2.38,4.8,4.9,7.24,7.29,6.77,6.58,13.48,13.22,20.14,19.91.88.89.88,2.34-.03,3.2-2.11,2-4.13,4.11-6.18,6.17-7.15,7.2-14.49,14.22-21.68,21.37-7.22,7.17-14.35,14.48-21.68,21.54-.89.85-2.29.83-3.16-.05-3.94-3.99-7.97-7.88-11.95-11.83-14.75-14.66-29.71-29.13-44.33-43.92-.42-.42-.65-.99-.65-1.58V2.27Z"/>
      <path class="cls-1" d="M171.26,82.51c11.88-.26,24-.08,35.92.01,1.23,0,2.22,1.01,2.22,2.24v38.36c0,1.24-1.01,2.24-2.25,2.24h-31.71c-4.05,0-8.18.15-12.27.11-2.01-.02-3.03,2.41-1.6,3.83l19.07,18.86c4.24,4.19,8.39,8.47,12.7,12.59.94.9.93,2.39-.03,3.27-2.09,1.92-4.05,4.04-6.03,6.03l-10.77,10.7c-3.49,3.5-7,6.98-10.54,10.43-.86.84-2.25.85-3.12.02-5.76-5.49-11.35-11.25-16.97-16.87l-20.86-20.56c-3.91-3.86-7.75-7.78-11.68-11.61-.9-.88-.91-2.31-.02-3.19l38.8-38.38c5.89-5.8,11.62-11.83,17.66-17.47.41-.38.94-.6,1.5-.61Z"/>
      <path class="cls-1" d="M43.55,16.18c.85-.84,2.21-.88,3.09-.07,2.34,2.16,6.07,6.2,7.27,7.38l31.51,31.09c3.6,3.54,7.12,7.15,10.76,10.64.93.89.92,2.36,0,3.24-2.72,2.61-5.35,5.32-8.01,7.98-4.89,4.79-9.76,9.61-14.59,14.47-11.21,11.06-22.61,21.98-33.64,33.21-.42.42-.98.66-1.57.67-7.49.09-14.98,0-22.46,0-4.55.02-9.1.01-13.65-.02-1.23,0-2.23-1.01-2.23-2.25v-38.2c0-1.23.99-2.24,2.22-2.25,14.75-.14,29.52-.02,44.27,0,1.99,0,3-2.4,1.59-3.82-.96-.97-1.93-1.95-2.9-2.91l-29.13-28.77c-.88-.86-.9-2.28-.04-3.16,4.06-4.17,8.29-8.21,12.44-12.29l15.09-14.96Z"/>
      <path class="cls-1" d="M101.83,82.46c11.67-1.72,22.51,6.39,24.16,18.07,1.66,11.68-6.51,22.48-18.19,24.07-11.6,1.58-22.3-6.51-23.95-18.1-1.64-11.59,6.39-22.34,17.98-24.04Z"/>
    </g>
  </g>
</svg>